# File created by Blade
# Date/Time:  Tue Jan 27 19:14:06 2015
# Frame Rate: 120.000 fps
#------------------------------------------------------
:FULLY-SPECIFIED
:DEGREES
4084
root 3.744194 32.449016 0.931823 -4.823121 5.766602 1.286648
Spine -0.937668 3.767861 -0.497649
Head 15.296988 -25.850529 -5.537830
LeftShoulder -4.406482 -7.693454 22.605308
LeftArm -7.999937 37.365401 -105.286369
LeftForeArm 3.139049 -0.000000 12.118492
LeftHand 9.710459 -0.000000 -5.300840
LeftHandThumb1 -26.253704 0.000000 33.147579
RightShoulder -15.799035 15.455300 -57.695902
RightArm 114.359634 65.666681 133.741207
RightForeArm 26.679827 0.000000 109.921043
RightHand 32.518932 -0.000000 -20.558133
RightHandThumb1 -24.326973 -0.000000 -32.862282
LeftUpLeg 10.652829 -3.285993 -0.914056
LeftLeg 2.439003 -0.000000 -0.000000
LeftFoot -14.637639 8.841376 -21.989905
LeftToeBase 18.577641 -0.000000 -0.000000
RightUpLeg 11.181924 -2.331222 3.257561
RightLeg 0.353449 -0.000000 -0.000000
RightFoot -13.097787 -16.185843 14.097494
RightToeBase 12.039854 -0.000000 -0.000000
4085
root 3.741460 32.447926 0.931304 -4.838645 5.754943 1.284057
Spine -0.908065 3.767948 -0.513650
Head 15.247565 -25.698722 -5.463075
LeftShoulder -4.423993 -7.699297 22.607736
LeftArm -7.982460 37.250595 -105.277793
LeftForeArm 2.968594 -0.000000 12.024086
LeftHand 9.927927 -0.000000 -6.974888
LeftHandThumb1 -26.253704 0.000000 33.147579
RightShoulder -15.822883 15.414596 -57.668184
RightArm 114.159775 65.850999 133.356803
RightForeArm 26.752419 -0.000000 109.954956
RightHand 32.457699 0.000000 -20.423894
RightHandThumb1 -24.326973 -0.000000 -32.862282
LeftUpLeg 10.671307 -3.273003 -0.906460
LeftLeg 2.432791 -0.000000 -0.000000
LeftFoot -14.645858 8.842014 -21.995584
LeftToeBase 18.581556 -0.000000 -0.000000
RightUpLeg 11.190886 -2.289053 3.271110
RightLeg 0.358968 -0.000000 -0.000000
RightFoot -13.120135 -16.215312 14.112898
RightToeBase 12.059140 -0.000000 -0.000000
4086
root 3.738736 32.447632 0.930190 -4.839145 5.738099 1.277091
Spine -0.903216 3.775137 -0.528789
Head 15.232150 -25.609020 -5.431296
LeftShoulder -4.420900 -7.703735 22.602428
LeftArm -7.985629 37.207481 -105.297172
LeftForeArm 2.874022 0.000000 11.935244
LeftHand 9.983369 -0.000000 -7.388367
LeftHandThumb1 -26.253704 0.000000 33.147579
RightShoulder -15.857402 15.280227 -57.619128
RightArm 114.079676 65.909037 133.103099
RightForeArm 26.881736 -0.000000 109.972434
RightHand 32.495443 -0.000000 -20.455592
RightHandThumb1 -24.326973 -0.000000 -32.862282
LeftUpLeg 10.669523 -3.268015 -0.896551
LeftLeg 2.438487 -0.000000 -0.000000
LeftFoot -14.662723 8.860182 -21.961077
LeftToeBase 18.624357 -0.000000 -0.000000
RightUpLeg 11.179459 -2.304741 3.277254
RightLeg 0.372506 -0.000000 -0.000000
RightFoot -13.112929 -16.181771 14.119103
RightToeBase 12.059607 -0.000000 -0.000000
4087
root 3.736330 32.446888 0.928459 -4.835839 5.712924 1.274770
Spine -0.901471 3.774123 -0.551722
Head 15.217407 -25.511676 -5.408506
LeftShoulder -4.430456 -7.703164 22.613252
LeftArm -8.000475 37.166635 -105.336727
LeftForeArm 3.093666 -0.000000 11.867243
LeftHand 9.793118 -0.000000 -6.310712
LeftHandThumb1 -26.253704 0.000000 33.147579
RightShoulder -15.890391 15.203460 -57.581222
RightArm 113.888175 65.979554 132.752347
RightForeArm 27.007087 -0.000000 109.982682
RightHand 32.584360 -0.000000 -20.771650
RightHandThumb1 -24.326973 -0.000000 -32.862282
LeftUpLeg 10.659080 -3.271746 -0.894770
LeftLeg 2.452284 -0.000000 -0.000000
LeftFoot -14.686767 8.881943 -21.953067
LeftToeBase 18.613002 -0.000000 -0.000000
RightUpLeg 11.162488 -2.292303 3.285766
RightLeg 0.386571 -0.000000 -0.000000
RightFoot -13.123559 -16.183894 14.101628
RightToeBase 12.096998 -0.000000 -0.000000
